<svg width="70" height="70" viewBox="0 0 70 70" fill="none" xmlns="http://www.w3.org/2000/svg">
    <g clip-path="url(#clip0)">
        <path d="M65.3258 11.6521C62.5113 11.9235 60.4068 14.3575 60.5445 17.1817L60.7557 25.8409C58.4406 26.0711 56.4141 27.495 55.4126 29.5949L52.248 36.2391C51.7562 37.2693 51.0382 38.1761 50.1487 38.8912L49.4909 39.4186C46.1462 42.0878 44.2821 46.1976 44.4784 50.4721L43.1854 49.8569C42.5994 49.5774 41.8975 49.8265 41.6186 50.4125L38.1493 57.6971C37.8703 58.2837 38.1189 58.985 38.7048 59.2639L54.6929 66.878C54.9741 67.0123 55.2972 67.0295 55.5911 66.9251C55.8849 66.8206 56.1254 66.6043 56.2591 66.3225L59.729 59.0367C60.0079 58.4507 59.7594 57.7494 59.1734 57.4704L58.4911 57.1456L58.3206 54.8666C58.2523 53.9765 58.533 53.0944 59.1028 52.4068L67.3821 42.388C67.3988 42.3679 67.4148 42.3473 67.4303 42.326C69.1372 39.9431 70.0371 37.077 69.9986 34.1466C69.9974 34.0909 69.9923 34.0353 69.9837 33.9802L66.601 12.6381C66.5035 12.024 65.9445 11.5918 65.3258 11.6521ZM54.6424 64.2501L40.7772 57.6466L43.2359 52.4837L57.101 59.0872L54.6424 64.2501ZM65.5445 40.9217L57.291 50.9095C56.3331 52.0642 55.862 53.546 55.9762 55.0416L56.0468 55.9811L46.9588 51.6533C46.3132 47.7174 47.8438 43.7396 50.9613 41.2522L51.619 40.7248C52.7852 39.7876 53.7259 38.5996 54.3709 37.2498L57.5349 30.6056C58.3625 28.8746 60.2363 27.9001 62.1291 28.2169L57.5039 37.9293C57.229 38.5147 57.4781 39.212 58.0623 39.4903C58.646 39.7681 59.345 39.5225 59.6263 38.9399L64.8271 28.0189C65.106 27.4324 64.8575 26.7311 64.2709 26.4522C63.8985 26.2754 63.5105 26.1336 63.1116 26.028L62.8941 17.11C62.8941 17.0997 62.8941 17.0893 62.893 17.0796C62.8327 15.9226 63.456 14.8379 64.485 14.3064L67.649 34.2631C67.6628 36.6489 66.927 38.9778 65.5445 40.9217Z" fill="#D13A52"/>
        <path d="M2.61741 42.388L10.8967 52.4068C11.4666 53.0944 11.7472 53.9765 11.6789 54.8666L11.5085 57.1456L10.8261 57.4704C10.2401 57.7494 9.99162 58.4507 10.2705 59.0367L13.7404 66.3225C13.8741 66.6043 14.1146 66.8206 14.4085 66.9251C14.7023 67.0295 15.0254 67.0123 15.3072 66.878L31.2947 59.2639C31.8807 58.985 32.1292 58.2837 31.8503 57.6971L28.3804 50.4119C28.1014 49.8259 27.4001 49.5768 26.8142 49.8563L25.5211 50.4716C25.7168 46.1971 23.8533 42.0873 20.5086 39.418L19.8509 38.8906C18.9607 38.1755 18.2433 37.2693 17.7509 36.2391L14.5864 29.5949C13.5849 27.495 11.5584 26.0711 9.24324 25.8409L9.45501 17.1817C9.59275 14.3581 7.48821 11.9235 4.67374 11.6521C4.05506 11.5918 3.49607 12.024 3.3985 12.6381L0.0158605 33.9802C0.00667791 34.0353 0.0020866 34.0909 0.000938777 34.1466C-0.0375134 37.077 0.862383 39.9431 2.5692 42.326C2.5847 42.3473 2.60077 42.3679 2.61741 42.388ZM29.2223 57.6472L15.3571 64.2501L12.8985 59.0872L26.7637 52.4837L29.2223 57.6472ZM5.51452 14.3059C6.54355 14.8373 7.16682 15.9226 7.10656 17.079C7.10656 17.0893 7.10598 17.0997 7.10541 17.11L6.8879 26.028C6.48903 26.1331 6.10049 26.2748 5.72802 26.4522C5.14205 26.7311 4.89297 27.433 5.17247 28.0189L10.3733 38.9405C10.6545 39.523 11.3535 39.7687 11.9372 39.4903C12.5209 39.2125 12.7705 38.5152 12.4956 37.9298L7.87044 28.2169C9.7632 27.8996 11.6376 28.8741 12.4646 30.6056L15.6292 37.2498C16.2742 38.5996 17.2143 39.7876 18.3805 40.7248L19.0382 41.2522C22.1557 43.7396 23.6863 47.7174 23.0407 51.6533L13.9528 55.9811L14.0234 55.0416C14.1376 53.546 13.6664 52.0642 12.7091 50.9095L4.45508 40.9217C3.0731 38.9778 2.33677 36.6489 2.35111 34.2631L5.51452 14.3059Z" fill="#D13A52"/>
        <path d="M49.0165 28.6238C49.5037 28.4683 49.8355 28.0166 49.8383 27.5047V8.87547C49.8355 8.36411 49.5037 7.91244 49.0165 7.75691L35.3637 3.35442C35.1284 3.27867 34.8753 3.27867 34.64 3.35442L20.9831 7.75634C20.4953 7.91187 20.1636 8.36354 20.1602 8.87547V27.5047C20.163 28.0166 20.4947 28.4677 20.982 28.6238L34.6348 33.0257C34.7519 33.063 34.8747 33.082 34.9975 33.082C35.1215 33.082 35.2449 33.063 35.3625 33.0257L49.0165 28.6238ZM36.1746 30.2933V14.1319L47.4876 10.4882V26.6496L36.1746 30.2933ZM34.9992 5.70804L44.8195 8.87547L34.9992 12.0417L25.179 8.87547L34.9992 5.70804ZM22.5109 10.4887L33.8239 14.1325V30.2939L22.5109 26.6501V10.4887Z" fill="#D13A52"/>
    </g>
    <defs>
        <clipPath id="clip0">
            <rect width="70" height="70" fill="white"/>
        </clipPath>
    </defs>
</svg>
