<svg width="82" height="82" viewBox="0 0 82 82" fill="none" xmlns="http://www.w3.org/2000/svg">
<path d="M47.3121 40.9424L47.3122 40.9424C47.7514 40.8063 48.2048 40.9074 48.5511 41.1626C48.8973 41.4179 49.1281 41.8213 49.1281 42.2813V42.2816V42.2824V42.2835V42.285V42.287V42.2893V42.2919V42.295V42.2985V42.3023V42.3065V42.3111V42.3161V42.3214V42.3271V42.3332V42.3396V42.3465V42.3537V42.3612V42.3691V42.3774V42.3861V42.3951V42.4044V42.4141V42.4242V42.4346V42.4454V42.4565V42.468V42.4798V42.492V42.5045V42.5173V42.5305V42.5441V42.5579V42.5721V42.5867V42.6016V42.6168V42.6323V42.6481V42.6643V42.6809V42.6977V42.7148V42.7323V42.7501V42.7682V42.7867V42.8054V42.8245V42.8439V42.8635V42.8835V42.9038V42.9244V42.9453V42.9665V42.9881V43.0099V43.032V43.0544V43.0771V43.1V43.1233V43.1469V43.1708V43.1949V43.2193V43.244V43.269V43.2943V43.3199V43.3457V43.3718V43.3982V43.4248V43.4518V43.479V43.5064V43.5342V43.5622V43.5904V43.6189V43.6477V43.6768V43.7061V43.7356V43.7654V43.7955V43.8258V43.8564V43.8872V43.9182V43.9495V43.9811V44.0129V44.0449V44.0772V44.1097V44.1424V44.1754V44.2086V44.242V44.2757V44.3096V44.3437V44.3781V44.4126V44.4474V44.4824V44.5177V44.5531V44.5888V44.6246V44.6607V44.697V44.7336V44.7703V44.8072V44.8443V44.8817V44.9192V44.9569V44.9949V45.033V45.0713V45.1099V45.1486V45.1875V45.2266V45.2659V45.3053V45.345V45.3848V45.4248V45.465V45.5054V45.546V45.5867V45.6276V45.6687V45.7099V45.7514V45.7929V45.8347V45.8766V45.9187V45.9609V46.0033V46.0459V46.0886V46.1315V46.1745V46.2177V46.261V46.3045V46.3481V46.3919V46.4358V46.4799V46.5241V46.5685V46.6129V46.6576V46.7023V46.7472V46.7922V46.8374V46.8827V46.9281V46.9736V47.0193V47.065V47.111V47.157V47.2031V47.2494V47.2958V47.3423V47.3889V47.4356V47.4824V47.5293V47.5764V47.6235V47.6707V47.7181V47.7655V47.8131V47.8607V47.9085V47.9563V48.0042V48.0522V48.1003V48.1485V48.1968V48.2452V48.2936V48.3421V48.3907V48.4394V48.4882V48.537V48.5859V48.6349V48.684V48.7331V48.7823V48.8315V48.8808V48.9302V48.9797V49.0292V49.0787V49.1284V49.178V49.2278V49.2775V49.3274V49.3773V49.4272V49.4772V49.5272V49.5772V49.6273V49.6775V49.7277V49.7779V49.8281V49.8784V49.9287V49.9791V50.0295V50.0799V50.1303V50.1808V50.2312V50.2817V50.3322V50.3828V50.4333V50.4839V50.5345V50.5851V50.6357V50.6863V50.7369V50.7876V50.8382V50.8888V50.9395V50.9901V51.0407V51.0914V51.142V51.1926V51.2432V51.2938V51.3444V51.395V51.4456V51.4961V51.5466V51.5971V51.6476V51.6981V51.7486V51.799V51.8494V51.8997V51.9501V52.0004V52.0507V52.1009V52.1511V52.2013V52.2514V52.3015V52.3515V52.4015V52.4515V52.5014V52.5513V52.6011V52.6508V52.7005V52.7502V52.7998V52.8493V52.8988V52.9482V52.9976V53.0469V53.0961V53.1453V53.1944V53.2434V53.2924V53.3412V53.39V53.4388V53.4874V53.536V53.5845V53.6329V53.6812V53.7295V53.7776V53.8257V53.8737V53.9216V53.9694V54.0171V54.0647V54.1122V54.1596V54.2069V54.2541V54.3012V54.3482V54.3951V54.4419V54.4885V54.5351V54.5815V54.6279V54.6741V54.7202V54.7662V54.812V54.8578V54.9034V54.9489V54.9942V55.0395V55.0846V55.1295V55.1744V55.2191V55.2636V55.3081V55.3524V55.3965V55.4405V55.4844V55.5281V55.5717V55.6151V55.6584V55.7015V55.7445V55.7873V55.8299V55.8724V55.9148V55.957V55.999V56.0408V56.0825V56.124V56.1654V56.2066V56.2476V56.2884V56.3291V56.3696V56.4099V56.45V56.49V56.5297V56.5693V56.6087V56.6479V56.687V56.7258V56.7644V56.8029V56.8411V56.8792V56.917V56.9547V56.9922V57.0294V57.0665V57.1033V57.14V57.1764V57.2126V57.2486V57.2844V57.32V57.3554V57.3905V57.4254V57.4601V57.4946V57.5289V57.5629V57.5967V57.6303V57.6637V57.6968V57.7297V57.7623V57.7947V57.8269V57.8588V57.8905V57.922V57.9532V57.9842V58.0149V58.0453V58.0756V58.1055V58.1352V58.1647V58.1939V58.2228V58.2515V58.2799V58.3081V58.336V58.3636V58.391V58.4181V58.4449V58.4714V58.4977V58.5237V58.5494V58.5749V58.6001V58.6249V58.6495V58.6739V58.6979V58.7216V58.7451V58.7683V58.7911V58.8137V58.836V58.858V58.8797V58.9011V58.9222V58.943V58.9635V58.9836V59.0035V59.0231V59.0423V59.0613V59.0799V59.0982V59.1162V59.1339V59.1512V59.1683V59.185V59.2014V59.2174V59.2332V59.2486V59.2637V59.2784V59.2928V59.3069V59.3206V59.334V59.3471V59.3598V59.3722V59.3842V59.3959V59.4072V59.4182V59.4289V59.4392V59.4491V59.4587V59.4679V59.4767V59.4853V59.4934V59.5012V59.5086V59.5156V59.5223V59.5286V59.5346V59.5401V59.5453V59.5502V59.5546V59.5587V59.5624V59.5657V59.5686V59.5711V59.5733V59.575V59.5764V59.5774V59.578C49.1281 59.5781 49.1281 59.5782 49.3281 59.5782H49.1281C49.1281 60.1926 48.728 60.7355 48.141 60.9171L48.1407 60.9172L48.1388 60.9178L48.1314 60.9201L48.1018 60.9291L47.9867 60.9646L47.5495 61.099C47.1727 61.2148 46.6343 61.3802 45.9877 61.5788C44.6945 61.9759 42.9686 62.5053 41.2378 63.0347C39.5069 63.5642 37.7713 64.0936 36.4585 64.4905C35.8021 64.6891 35.2518 64.8544 34.8607 64.97C34.6651 65.0279 34.5099 65.0731 34.4015 65.1038C34.3471 65.1192 34.3055 65.1306 34.2768 65.1381C34.2678 65.1405 34.2606 65.1423 34.255 65.1437C33.5 65.1331 32.8719 64.4747 32.8719 63.7422V46.4454C32.8719 45.8309 33.2722 45.2881 33.859 45.1064L47.3121 40.9424ZM46.1841 58.5884L46.325 58.5448V58.3973V44.4537V44.1824L46.0659 44.2626L35.8159 47.4353L35.675 47.4789V47.6263V61.57V61.8413L35.9341 61.7611L46.1841 58.5884Z" fill="#D13A52" stroke="white" stroke-width="0.4"/>
<path d="M47.2525 29.3806L40.827 31.3697C39.9993 31.626 39.5139 32.5448 39.7698 33.3715C39.8714 33.6991 40.0886 33.9841 40.3659 34.1861L47.2525 29.3806ZM47.2525 29.3806L47.3116 29.5717L47.3121 29.5715C48.0326 29.3467 48.8417 29.7729 49.065 30.4953C49.2933 31.2338 48.8782 32.0201 48.1415 32.2485C48.1415 32.2485 48.1414 32.2485 48.1414 32.2486L41.7144 34.2377L41.7139 34.2378C41.3072 34.365 40.8174 34.2671 40.4837 34.0244L39.9609 33.3123C39.7377 32.5914 40.1638 31.7845 40.8862 31.5608L40.8862 31.5608L40.8871 31.5605C40.8869 31.5606 40.8929 31.5587 40.9059 31.5547L40.9607 31.5377L41.1664 31.474L41.8962 31.2481L44.1043 30.5646L46.3097 29.8818L47.0361 29.6569L47.2396 29.594L47.2933 29.5774L47.307 29.5731L47.3105 29.572L47.3114 29.5718L47.3116 29.5717L47.2525 29.3806ZM40.4836 34.0244C40.2374 33.8451 40.0484 33.5946 39.9609 33.3124L40.4836 34.0244Z" fill="#D13A52" stroke="white" stroke-width="0.4"/>
<path d="M47.2528 65.4158L47.3119 65.6068L47.3123 65.6067C47.7422 65.4726 48.1988 65.5649 48.5481 65.8166C48.7877 65.9894 48.974 66.2354 49.0653 66.5306L49.0653 66.5306C49.2937 67.2692 48.8786 68.0555 48.1417 68.2839L41.7147 70.273L41.7142 70.2732C40.9828 70.5017 40.1807 70.0558 39.9613 69.3477C39.7354 68.6184 40.1576 67.8216 40.8865 67.596L40.8865 67.5959L40.8866 67.5959L40.8869 67.5958L40.8879 67.5955L40.8916 67.5944L40.9059 67.5899L40.9605 67.573L41.1658 67.5095L41.8952 67.2837L44.1034 66.6001L46.3095 65.9171L47.0363 65.6921L47.2399 65.6291L47.2935 65.6125L47.3073 65.6083L47.3107 65.6072L47.3116 65.6069L47.3118 65.6068L47.2528 65.4158Z" fill="#D13A52" stroke="white" stroke-width="0.4"/>
<path d="M47.2524 21.3729L40.827 23.362C39.9978 23.6188 39.5143 24.5374 39.7699 25.3656C39.8736 25.7014 40.0898 25.982 40.3652 26.1789L47.2524 21.3729ZM47.2524 21.3729L47.3115 21.564L47.3113 21.564L47.3104 21.5643L47.3069 21.5654L47.2932 21.5697L47.2395 21.5863L47.036 21.6493L46.3093 21.8742L44.1033 22.5571L41.8951 23.2407L41.1656 23.4666L40.9602 23.5301L40.9056 23.5471L40.8913 23.5515L40.8876 23.5526L40.8863 23.553L40.8861 23.5531C40.1626 23.7771 39.7379 24.5838 39.961 25.3066L39.961 25.3066C40.0507 25.5971 40.2385 25.8425 40.4815 26.0161L40.4815 26.0161C40.8346 26.2683 41.2932 26.3616 41.7138 26.2301L41.7144 26.23L48.1414 24.2408C48.8782 24.0125 49.2932 23.2262 49.0649 22.4876C48.8409 21.7628 48.0358 21.3379 47.312 21.5638L47.3116 21.564L47.2524 21.3729Z" fill="#D13A52" stroke="white" stroke-width="0.4"/>
<path d="M48.5473 13.7673L48.5473 13.7673C48.7875 13.9398 48.974 14.1851 49.0652 14.4795L49.0652 14.4796C49.2912 15.2092 48.8706 16.0071 48.1417 16.2327L48.1411 16.2329L48.0686 16.2553L47.864 16.3186L47.1353 16.5442L44.9262 17.2279L42.7181 17.9113L41.9905 18.1364L41.7867 18.1995L41.733 18.2162L41.7192 18.2204L41.7158 18.2215L41.7149 18.2218L41.7147 18.2218L41.7737 18.4129L41.7146 18.2219L41.714 18.222C40.9926 18.4476 40.1846 18.0223 39.9613 17.2985L39.9613 17.2985C39.7434 16.5924 40.1775 15.7645 40.8864 15.545L44.1053 14.5485L46.3102 13.8659L47.0364 13.6411L47.2398 13.5781L47.2934 13.5615L47.3072 13.5573L47.3107 13.5562L47.3115 13.5559L47.3117 13.5559C47.3117 13.5559 47.3117 13.5559 47.3117 13.5559C47.74 13.4237 48.1973 13.5158 48.5473 13.7673Z" fill="#D13A52" stroke="white" stroke-width="0.4"/>
<path d="M6.66906 48.9137L6.66906 48.9136C6.89793 48.1741 7.68276 47.7603 8.42242 47.9892C8.42242 47.9892 8.42243 47.9892 8.42243 47.9892L21.8755 52.1532C22.615 52.3821 23.0289 53.1671 22.7999 53.9067L22.7999 53.9068C22.6138 54.5079 22.06 54.8942 21.4616 54.8942C21.3246 54.8942 21.185 54.8739 21.0467 54.8311L21.0467 54.8311L7.59353 50.667L7.53439 50.8581L7.59353 50.667C6.85407 50.4381 6.44018 49.6531 6.66906 48.9137Z" fill="#D13A52" stroke="white" stroke-width="0.4"/>
<path d="M10.7861 15.5895L10.7861 15.5895L17.833 17.8317C17.833 17.8317 17.833 17.8317 17.833 17.8317C17.9747 17.8768 18.1177 17.8981 18.2584 17.8981C18.8526 17.8981 19.4039 17.5171 19.5936 16.9211C19.8282 16.1834 19.4206 15.3952 18.683 15.1605L11.6362 12.9183L11.6361 12.9183C10.8984 12.6835 10.1103 13.0912 9.87549 13.8289L10.7861 15.5895ZM10.7861 15.5895C10.0485 15.3549 9.64072 14.5667 9.87549 13.8289L10.7861 15.5895Z" fill="#D13A52" stroke="white" stroke-width="0.4"/>
<path d="M8.04215 22.7787L11.1019 23.7259L11.1019 23.7259C11.2403 23.7687 11.3797 23.789 11.5168 23.789C12.1152 23.789 12.6691 23.4027 12.8551 22.8016L12.8551 22.8016C13.084 22.0621 12.6701 21.2773 11.9306 21.0482C11.9306 21.0482 11.9306 21.0482 11.9306 21.0482L8.87084 20.101L8.87079 20.101C8.13171 19.872 7.34638 20.286 7.11749 21.0255L8.04215 22.7787ZM8.04215 22.7787C7.30263 22.5497 6.88878 21.7648 7.11749 21.0255L8.04215 22.7787ZM11.0428 23.9169C11.2005 23.9658 11.3599 23.989 11.5168 23.989C12.2004 23.989 12.8335 23.5479 13.0462 22.8607C13.3077 22.0157 12.8348 21.1188 11.9898 20.8572L8.92998 19.91C8.08532 19.6483 7.18796 20.1214 6.92643 20.9664C6.66505 21.8112 7.13799 22.7081 7.98298 22.9698L11.0428 23.9169Z" fill="#D13A52" stroke="white" stroke-width="0.4"/>
<path d="M21.8754 24.126L21.8754 24.126C22.6148 24.3549 23.0287 25.1399 22.7998 25.8792L22.7998 25.8792C22.6138 26.4805 22.0599 26.8668 21.4614 26.8668C21.3244 26.8668 21.1849 26.8465 21.0467 26.8037L21.0466 26.8037L17.9867 25.8565L17.9867 25.8565C17.2472 25.6276 16.8334 24.8427 17.0622 24.1033L17.0622 24.1033C17.2911 23.3637 18.0761 22.9501 18.8154 23.1788C18.8154 23.1788 18.8154 23.1788 18.8155 23.1788L21.8754 24.126Z" fill="#D13A52" stroke="white" stroke-width="0.4"/>
<path d="M21.0467 62.8388L21.0467 62.8388L7.59353 58.6748C6.85407 58.4459 6.44018 57.6609 6.66906 56.9214C6.89792 56.182 7.68274 55.7682 8.42242 55.9969C8.42243 55.9969 8.42245 55.9969 8.42246 55.9969L21.8755 60.161C22.615 60.3899 23.0289 61.1749 22.7999 61.9145L22.7999 61.9145C22.6138 62.5156 22.06 62.9019 21.4616 62.9019C21.3246 62.9019 21.185 62.8817 21.0467 62.8388Z" fill="#D13A52" stroke="white" stroke-width="0.4"/>
<path d="M21.0467 70.8467L21.0467 70.8467L7.59353 66.6826C6.85407 66.4538 6.44018 65.6687 6.66906 64.9293C6.89793 64.1898 7.68279 63.7759 8.42243 64.0048L21.8755 68.1689C22.615 68.3977 23.0289 69.1827 22.7999 69.9224L22.7999 69.9224C22.6138 70.5235 22.06 70.9098 21.4616 70.9098C21.3246 70.9098 21.185 70.8895 21.0467 70.8467Z" fill="#D13A52" stroke="white" stroke-width="0.4"/>
<path d="M78.9969 54.7589C78.9969 53.9852 79.6266 53.3558 80.3984 53.3558C81.1703 53.3558 81.8 53.9852 81.8 54.7589C81.8 55.5307 81.1707 56.1589 80.3984 56.1589C79.6262 56.1589 78.9969 55.5307 78.9969 54.7589Z" fill="#D13A52" stroke="white" stroke-width="0.4"/>
<path d="M54.5403 0.261579L54.5404 0.261339C54.2771 0.181324 53.9931 0.178784 53.724 0.260802C53.724 0.260805 53.7239 0.260808 53.7239 0.260811L27.9255 8.1264L27.8672 8.14418L27.8089 8.1264L2.01044 0.26097C2.01043 0.260968 2.01042 0.260965 2.01041 0.260963C1.58536 0.131438 1.12429 0.210819 0.767562 0.475214L0.767491 0.475267C0.410506 0.739607 0.2 1.1574 0.2 1.60155V72.3906C0.2 73.0072 0.602957 73.5514 1.19271 73.7312L1.13625 73.9164C1.19271 73.7312 1.19281 73.7312 1.19301 73.7313L1.19391 73.7316L1.19749 73.7327L1.21174 73.737L1.26801 73.7542L1.4875 73.8211L2.32062 74.0751L5.29433 74.9817L14.3192 77.7332L23.3472 80.4856L26.3249 81.3935L27.1606 81.6482L27.3815 81.7156L27.4385 81.733L27.4578 81.7388L27.4584 81.739C27.59 81.7792 27.7292 81.8 27.8673 81.8C27.9226 81.8 28.0218 81.7862 28.1201 81.7689C28.1665 81.7607 28.2089 81.7523 28.2398 81.746L28.2763 81.7384C28.279 81.7378 28.281 81.7373 28.2825 81.737L54.0754 73.8733L54.1338 73.8555L54.1921 73.8733L79.9873 81.7393C79.9874 81.7393 79.9875 81.7393 79.9876 81.7394C80.1222 81.779 80.2617 81.8 80.4 81.8C80.701 81.8 80.9877 81.7052 81.2324 81.5253C81.5882 81.262 81.8 80.8412 81.8 80.3984V61.9644C81.8 61.1927 81.1707 60.5645 80.3984 60.5645C79.6262 60.5645 78.9969 61.1927 78.9969 61.9644V78.2363V78.5064L78.7385 78.4276L55.676 71.3952L55.5344 71.352V71.2039V3.76366V3.49358L55.7927 3.57236L78.8552 10.6048L78.9969 10.648V10.7961V47.5504C78.9969 48.3239 79.6263 48.9519 80.3984 48.9519C81.1706 48.9519 81.8 48.3239 81.8 47.5504V9.60936C81.8 8.9881 81.4013 8.45043 80.8075 8.26789L54.5403 0.261579ZM54.5403 0.261579L54.5501 0.26401C54.5456 0.262894 58.66 1.51701 63.6382 3.03442L67.6747 4.26481L76.7038 7.017L79.6792 7.92396L80.5128 8.17806L80.7324 8.24501L80.7887 8.26217L80.803 8.26652L80.8066 8.26761L80.8073 8.26784L54.5403 0.261579ZM3.26145 3.57299L3.00312 3.49424V3.7643V71.2045V71.3526L3.1448 71.3958L26.2073 78.4271L26.4656 78.5059V78.2358V10.7955V10.6474L26.3239 10.6042L3.26145 3.57299ZM29.4104 10.6042L29.2687 10.6474V10.7955V78.2358V78.5059L29.5271 78.4271L52.5896 71.396L52.7313 71.3528V71.2047V3.7643V3.49424L52.4729 3.57299L29.4104 10.6042Z" fill="#D13A52" stroke="white" stroke-width="0.4"/>
<path d="M74.4066 54.0751L74.4066 54.0751C74.9936 54.2568 75.3937 54.7996 75.3937 55.414V71.1094C75.3937 71.8695 74.7541 72.5109 73.992 72.5109C73.8531 72.5109 73.7137 72.4903 73.5777 72.4483L60.1246 68.2842L60.0655 68.4753L60.1246 68.2842C59.5377 68.1026 59.1375 67.5598 59.1375 66.9453V51.25C59.1375 50.3302 60.0706 49.6378 60.9535 49.9111L67.689 51.9959L72.3079 53.4255L73.8295 53.8965L74.2558 54.0284L74.3681 54.0632L74.3969 54.0721L74.4042 54.0744L74.406 54.0749L74.4065 54.0751C74.4066 54.0751 74.4066 54.0751 74.4658 53.8841L74.4066 54.0751ZM72.3315 69.1282L72.5906 69.2084V68.9372V56.595V56.4476L72.4498 56.404L62.1998 53.2313L61.9406 53.1511V53.4223V65.7645V65.9119L62.0815 65.9555L72.3315 69.1282Z" fill="#D13A52" stroke="white" stroke-width="0.4"/>
<path d="M73.5778 32.4091L73.5777 32.4091L60.1246 28.245C59.5378 28.0634 59.1375 27.5205 59.1375 26.9061V11.2108C59.1375 10.2873 60.067 9.59745 60.9535 9.87186L67.6864 11.9559L72.307 13.386L73.8293 13.8572L74.2557 13.9892L74.3681 14.024L74.3969 14.0329L74.4042 14.0352L74.406 14.0357L74.4065 14.0359C74.4066 14.0359 74.4066 14.0359 74.4658 13.8449L74.4066 14.0359L74.4066 14.0359C74.9936 14.2176 75.3937 14.7604 75.3937 15.3748V31.0702C75.3937 31.9933 74.4619 32.6829 73.5778 32.4091ZM62.1998 13.1921L61.9406 13.1119V13.3831V25.7253V25.8727L62.0815 25.9163L72.3315 29.089L72.5906 29.1692V28.8979V16.5558V16.4084L72.4498 16.3648L62.1998 13.1921Z" fill="#D13A52" stroke="white" stroke-width="0.4"/>
<path d="M73.5779 49.0654L73.5779 49.0654L66.843 46.9808L62.2237 45.551L60.7019 45.08L60.2756 44.9481L60.1633 44.9133L60.1345 44.9044L60.1272 44.9021L60.1254 44.9016L60.1249 44.9014C60.1248 44.9014 60.1248 44.9014 60.0657 45.0924L60.1248 44.9014C59.3853 44.6725 58.9714 43.8875 59.2003 43.148C59.4292 42.4086 60.2142 41.9947 60.9537 42.2235L74.4068 46.3876C75.1463 46.6165 75.5601 47.4015 75.3313 48.141C75.1055 48.8703 74.2886 49.2854 73.5779 49.0654Z" fill="#D13A52" stroke="white" stroke-width="0.4"/>
<path d="M60.9537 34.2158L60.9537 34.2158L74.4068 38.3799C75.1463 38.6087 75.5601 39.3937 75.3313 40.1332L75.5223 40.1924L75.3313 40.1332C75.1046 40.8658 74.2909 41.2784 73.5779 41.0577L73.5779 41.0577L66.851 38.9755L62.2267 37.5442L60.7028 37.0725L60.2759 36.9404L60.1634 36.9056L60.1345 36.8966L60.1272 36.8944L60.1254 36.8938L60.1249 36.8937C60.1248 36.8936 60.1248 36.8936 60.0657 37.0847L60.1248 36.8936C59.3853 36.6647 58.9714 35.8797 59.2003 35.1403C59.4292 34.4008 60.2142 33.9868 60.9537 34.2158Z" fill="#D13A52" stroke="white" stroke-width="0.4"/>
<path d="M35.8352 34.9141C35.8352 35.6881 35.2077 36.3156 34.4336 36.3156C33.6595 36.3156 33.032 35.6881 33.032 34.9141C33.032 34.14 33.6595 33.5125 34.4336 33.5125C35.2077 33.5125 35.8352 34.14 35.8352 34.9141Z" fill="#D13A52" stroke="white" stroke-width="0.4"/>
<path d="M35.8352 27.0664C35.8352 27.8405 35.2077 28.468 34.4336 28.468C33.6595 28.468 33.032 27.8405 33.032 27.0664C33.032 26.2923 33.6595 25.6648 34.4336 25.6648C35.2077 25.6648 35.8352 26.2923 35.8352 27.0664Z" fill="#D13A52" stroke="white" stroke-width="0.4"/>
<path d="M35.8352 19.0586C35.8352 19.8327 35.2077 20.4602 34.4336 20.4602C33.6595 20.4602 33.032 19.8327 33.032 19.0586C33.032 18.2845 33.6595 17.657 34.4336 17.657C35.2077 17.657 35.8352 18.2845 35.8352 19.0586Z" fill="#D13A52" stroke="white" stroke-width="0.4"/>
<path d="M35.8352 71.1094C35.8352 71.8834 35.2077 72.5109 34.4336 72.5109C33.6595 72.5109 33.032 71.8834 33.032 71.1094C33.032 70.3353 33.6595 69.7078 34.4336 69.7078C35.2077 69.7078 35.8352 70.3353 35.8352 71.1094Z" fill="#D13A52" stroke="white" stroke-width="0.4"/>
</svg>
