<svg width="82" height="82" viewBox="0 0 82 82" fill="none" xmlns="http://www.w3.org/2000/svg">
    <g clip-path="url(#clip0)">
        <path d="M9.71308 81.2019C10.3337 81.8212 11.2145 82.1053 12.081 81.9645C12.9468 81.8244 13.6925 81.2763 14.086 80.4925L16.9106 74.8402L30.1495 67.6408L31.046 69.3049C31.7322 70.5874 32.9046 71.5408 34.2997 71.9512C35.6885 72.3722 37.1874 72.2196 38.463 71.5277L48.0891 66.3421C50.7416 64.9076 51.7351 61.5988 50.3112 58.9406L49.3716 57.1927L70.0201 45.9632C70.777 45.551 71.295 44.8059 71.4183 43.9532C71.5415 43.0999 71.255 42.2391 70.6457 41.6297L40.3705 11.3596C39.7612 10.7509 38.9003 10.465 38.0476 10.5882C37.195 10.7114 36.4505 11.2294 36.0382 11.9858L7.16002 65.0834L1.50774 67.9098C0.723244 68.3033 0.175847 69.049 0.0350873 69.9155C-0.105047 70.7813 0.178349 71.6622 0.798316 72.2834L9.71308 81.2019ZM47.8983 60.235C48.6127 61.5638 48.1154 63.2203 46.7872 63.9354L37.1618 69.1291C36.5231 69.4732 35.7742 69.5489 35.0798 69.3406C34.3854 69.1322 33.8017 68.6568 33.4583 68.0181L32.5561 66.3408L46.9649 58.4965L47.8983 60.235ZM38.438 13.292L68.7119 43.5591L66.207 44.926L37.0767 15.7957L38.438 13.292ZM35.716 18.2993L63.7021 46.2854L46.9074 55.4185C46.8936 55.4185 46.8798 55.4185 46.8673 55.431C46.8554 55.4435 46.8473 55.4504 46.8348 55.4586L16.1236 72.1626L9.83695 65.876L35.716 18.2993ZM7.88446 67.7772L14.223 74.1158L11.6449 79.2694L2.73079 70.3547L7.88446 67.7772Z" fill="#D13A52"/>
        <path d="M44.4431 11.3628C44.7871 11.4779 45.1625 11.4516 45.4872 11.2896C45.8119 11.1276 46.0584 10.8429 46.1735 10.4988L49.0719 1.79989C49.2264 1.33632 49.1213 0.82521 48.7966 0.459861C48.4719 0.0945122 47.9771 -0.0700199 47.4985 0.0281988C47.0199 0.126418 46.6295 0.472373 46.475 0.936566L43.5791 9.63362C43.3408 10.3499 43.7274 11.1238 44.4431 11.3628Z" fill="#D13A52"/>
        <path d="M70.6377 37.557C70.8767 38.2727 71.6505 38.6593 72.3662 38.4203L81.0639 35.5207C81.5275 35.3662 81.8741 34.9764 81.9723 34.4972C82.0705 34.0186 81.906 33.5238 81.5406 33.1991C81.1747 32.8744 80.6642 32.7693 80.2 32.9238L71.5016 35.8222C71.1563 35.9373 70.871 36.1844 70.709 36.5104C70.547 36.8357 70.5213 37.2123 70.6377 37.557Z" fill="#D13A52"/>
        <path d="M60.3375 23.0283C60.7004 23.0289 61.0482 22.8851 61.3041 22.6279L68.0686 15.8627C68.4471 15.5262 68.6079 15.0075 68.4865 14.5158C68.3652 14.0241 67.9817 13.6394 67.4906 13.5167C66.9989 13.3941 66.4802 13.5536 66.1418 13.9303L59.3772 20.6955C58.9862 21.0865 58.8692 21.6739 59.0807 22.1844C59.2921 22.6949 59.7907 23.0283 60.3431 23.0283H60.3375Z" fill="#D13A52"/>
        <path d="M51.9438 17.0587C52.2604 17.2345 52.6345 17.2777 52.983 17.1782C53.3314 17.0787 53.6261 16.8454 53.8025 16.5282L58.6334 7.83116C59 7.17115 58.7629 6.33911 58.1035 5.97251C57.4435 5.60528 56.6114 5.84301 56.2448 6.50239L51.4133 15.2001C51.2375 15.5166 51.1944 15.8907 51.2939 16.2392C51.3933 16.5876 51.6267 16.8823 51.9438 17.0587Z" fill="#D13A52"/>
        <path d="M64.9421 30.0568C65.1179 30.3733 65.4132 30.6073 65.7616 30.7068C66.1101 30.8063 66.4842 30.7631 66.8007 30.5867L75.4978 25.7558C76.1578 25.3892 76.3949 24.5572 76.0283 23.8972C75.6611 23.2378 74.829 23.0001 74.1696 23.3673L65.4726 28.1981C65.1554 28.3739 64.9214 28.6692 64.822 29.0177C64.7225 29.3661 64.7657 29.7402 64.9421 30.0568Z" fill="#D13A52"/>
        <path d="M24.9021 46.0603C25.101 46.1679 25.3231 46.2242 25.5489 46.2242C26.0519 46.2242 26.5142 45.9483 26.7526 45.5054L33.5178 32.9434C33.7493 32.513 33.7343 31.9925 33.4778 31.5771C33.2213 31.1611 32.7627 30.9139 32.2741 30.9283C31.7861 30.9427 31.3426 31.2161 31.1111 31.6459L24.3459 44.2098C23.9887 44.8741 24.2377 45.7024 24.9021 46.0603Z" fill="#D13A52"/>
        <path d="M33.6352 29.6494C33.9593 29.8115 34.3347 29.8384 34.6787 29.7239C35.0228 29.6094 35.3068 29.3629 35.4689 29.0382L37.4026 25.172C37.7404 24.497 37.467 23.6762 36.792 23.3384C36.117 23.0006 35.2956 23.274 34.9578 23.949L33.024 27.8152C32.862 28.1392 32.8351 28.5152 32.9496 28.8587C33.0641 29.2028 33.3106 29.4874 33.6352 29.6494Z" fill="#D13A52"/>
    </g>
    <defs>
        <clipPath id="clip0">
            <rect width="82" height="82" fill="white"/>
        </clipPath>
    </defs>
</svg>
