<svg width="68" height="77" viewBox="0 0 68 77" fill="none" xmlns="http://www.w3.org/2000/svg">
<path d="M44.397 50.0841C44.545 49.8432 44.693 49.6068 44.841 49.3615C51.4965 38.3427 54.8456 28.7039 54.7976 20.7159C54.768 15.2202 52.5644 9.95961 48.6682 6.08364C44.772 2.20767 39.5 0.031449 34.0042 0.0305179C28.5084 0.0295868 23.2356 2.20402 19.3381 6.07867C15.4406 9.95333 13.2352 15.2132 13.2037 20.7089C13.155 28.7039 16.5049 38.344 23.1603 49.3615C23.3083 49.6068 23.4563 49.8432 23.6043 50.0841C9.59253 51.8157 0.303467 56.8235 0.303467 62.7691C0.303467 70.2337 15.1019 76.0807 34.0003 76.0807C52.8988 76.0807 67.6972 70.2337 67.6972 62.7691C67.6972 56.8235 58.4082 51.8157 44.397 50.0841ZM15.4459 20.7159C15.432 18.2701 15.9018 15.8457 16.8283 13.5821C17.7547 11.3185 19.1196 9.26037 20.8443 7.52615C22.569 5.79192 24.6196 4.4158 26.8781 3.47692C29.1365 2.53804 31.5584 2.05495 34.0042 2.05541C36.4501 2.05588 38.8717 2.53989 41.1298 3.47963C43.3879 4.41936 45.438 5.79626 47.1621 7.53114C48.8861 9.26602 50.2502 11.3246 51.1758 13.5886C52.1014 15.8525 52.5702 18.2772 52.5554 20.723C52.6515 36.6476 37.7634 56.2885 34.0003 60.9984C30.2373 56.2885 15.3485 36.647 15.4459 20.7159ZM34.0003 73.8385C15.1845 73.8385 2.54565 68.1145 2.54565 62.7691C2.54565 58.0285 11.9174 53.6178 24.9252 52.1873C27.441 56.1154 30.1862 59.8918 33.1464 63.4969C33.2515 63.6208 33.3824 63.7203 33.5298 63.7886C33.6773 63.8569 33.8378 63.8923 34.0003 63.8923C34.1628 63.8923 34.3234 63.8569 34.4709 63.7886C34.6183 63.7203 34.7492 63.6208 34.8543 63.4969C37.8147 59.8918 40.5601 56.1154 43.0761 52.1873C56.0808 53.6178 65.4557 58.0259 65.4557 62.7691C65.455 68.1145 52.8161 73.8385 34.0003 73.8385Z" fill="#D13A52"/>
<path d="M24.8343 67.3453C19.8592 66.7085 15.8656 65.5874 13.5926 64.1902C13.4672 64.11 13.327 64.0556 13.1803 64.0302C13.0337 64.0047 12.8834 64.0088 12.7383 64.042C12.5932 64.0753 12.4561 64.1371 12.3352 64.2239C12.2142 64.3107 12.1118 64.4207 12.0338 64.5475C11.9558 64.6744 11.9039 64.8154 11.881 64.9625C11.8581 65.1097 11.8648 65.2598 11.9006 65.4044C11.9364 65.5489 12.0006 65.6848 12.0895 65.8042C12.1784 65.9236 12.2902 66.0241 12.4183 66.0999C14.9571 67.6605 19.266 68.893 24.5499 69.5689C24.5975 69.575 24.6454 69.578 24.6934 69.5778C24.9775 69.5765 25.2506 69.4672 25.4573 69.2722C25.664 69.0772 25.7889 68.811 25.8068 68.5274C25.8247 68.2438 25.7342 67.964 25.5537 67.7445C25.3732 67.5251 25.116 67.3824 24.8343 67.3453Z" fill="#D13A52"/>
<path d="M35.8835 67.8806C34.321 67.9165 32.6938 67.9082 31.1057 67.8499C30.9585 67.8445 30.8117 67.8681 30.6736 67.9194C30.5355 67.9707 30.4088 68.0488 30.3009 68.149C30.193 68.2493 30.1058 68.3698 30.0445 68.5038C29.9831 68.6377 29.9488 68.7824 29.9433 68.9297C29.9379 69.0769 29.9615 69.2237 30.0129 69.3618C30.0642 69.4999 30.1422 69.6265 30.2425 69.7345C30.3427 69.8424 30.4633 69.9296 30.5972 69.9909C30.7312 70.0523 30.8759 70.0866 31.0231 70.0921C32.0084 70.1279 33.009 70.1465 34.0007 70.1465C34.6529 70.1465 35.298 70.1388 35.936 70.1235C36.2333 70.1166 36.5156 69.9919 36.7209 69.7768C36.9263 69.5618 37.0377 69.274 37.0309 68.9767C37.0293 68.8289 36.9982 68.6828 36.9394 68.5472C36.8805 68.4115 36.7951 68.289 36.6882 68.1869C36.5813 68.0847 36.455 68.005 36.3168 67.9524C36.1786 67.8998 36.0313 67.8754 35.8835 67.8806Z" fill="#D13A52"/>
<path d="M43.4685 20.7159C43.4683 18.8435 42.9128 17.0132 41.8724 15.4565C40.8319 13.8998 39.3532 12.6865 37.6233 11.9702C35.8933 11.2539 33.9898 11.0666 32.1534 11.4321C30.317 11.7976 28.6303 12.6994 27.3064 14.0235C25.9826 15.3477 25.0811 17.0346 24.716 18.8711C24.3509 20.7075 24.5385 22.611 25.2552 24.3408C25.9719 26.0706 27.1854 27.5491 28.7423 28.5892C30.2992 29.6293 32.1296 30.1844 34.002 30.1843C36.5121 30.1813 38.9185 29.1826 40.6932 27.4076C42.4679 25.6325 43.466 23.2259 43.4685 20.7159ZM26.7771 20.7159C26.7773 19.287 27.2013 17.8902 27.9953 16.7022C28.7894 15.5143 29.9178 14.5884 31.238 14.0418C32.5583 13.4951 34.0109 13.3523 35.4123 13.6312C36.8138 13.9101 38.101 14.5983 39.1113 15.6088C40.1216 16.6193 40.8096 17.9066 41.0883 19.3081C41.3669 20.7096 41.2238 22.1622 40.6769 23.4823C40.13 24.8024 39.204 25.9307 38.0159 26.7246C36.8278 27.5184 35.4309 27.9421 34.002 27.9421C32.0863 27.9401 30.2496 27.1781 28.895 25.8233C27.5405 24.4685 26.7788 22.6316 26.7771 20.7159Z" fill="#D13A52"/>
</svg>
