<svg width="151" height="151" viewBox="0 0 151 151" fill="none" xmlns="http://www.w3.org/2000/svg">
<g filter="url(#filter0_d)">
<ellipse cx="75.5" cy="65.5" rx="45.5" ry="45.5" transform="rotate(-90 75.5 65.5)" fill="#D13A52"/>
</g>
<path d="M97.5317 76.4432C96.2775 74.4145 92.9678 73.5193 91.1065 73.166C87.7094 72.5215 83.3315 72.5705 81.2095 74.1331C80.511 74.6478 80.1631 75.7114 80.0818 77.5819C80.0711 77.8284 80.0663 78.0691 80.065 78.2972C76.4596 76.9299 73.1313 74.8903 70.2908 72.3067L69.0433 71.0888C66.4008 68.3194 64.3136 65.0746 62.9139 61.5604C63.148 61.5592 63.3951 61.5546 63.6481 61.5442C65.56 61.4649 66.6473 61.1258 67.1734 60.4449C68.7671 58.3824 68.8248 54.1238 68.175 50.8183C67.8148 48.9852 66.8982 45.7264 64.8079 44.4947C62.7284 43.2693 59.5143 43.5649 58.2289 43.7491C55.5771 44.1286 53.3709 45.0486 52.3272 46.2097C51.4177 47.2216 51.0982 50.1095 51.0031 51.304C51.0005 51.3354 50.9996 51.3677 51.0001 51.3992C51.1566 61.129 54.9686 70.42 61.7337 77.5573C61.7428 77.5667 61.752 77.5801 61.7613 77.5892L63.6579 79.4487C63.6672 79.4579 63.6767 79.4827 63.6865 79.4913C70.9957 86.0947 80.5073 89.7485 90.4695 89.9998C90.4748 89.9998 90.4801 89.9998 90.4854 89.9998C90.5117 89.9998 90.5381 89.9674 90.5644 89.9655C91.7864 89.8726 94.7404 89.5297 95.7749 88.6435C96.9651 87.6239 97.908 85.4679 98.2972 82.8761C98.4858 81.6195 98.789 78.4772 97.5317 76.4432ZM96.2718 82.5828C95.9659 84.6195 95.2253 86.4464 94.4298 87.128C94.0732 87.4166 92.2229 87.7872 90.4535 87.9262C81.0184 87.7701 72.0124 84.244 65.0874 77.9936L63.2192 76.1696C56.8187 69.4103 53.2082 60.6212 53.0483 51.4128C53.1897 49.6898 53.5682 47.887 53.8626 47.5392C54.5624 46.7608 56.4359 46.0369 58.5247 45.7379C60.7157 45.4242 62.72 45.6082 63.7549 46.2181C64.7534 46.8066 65.6771 48.7151 66.1654 51.1992C66.8062 54.4594 66.5469 57.8858 65.5644 59.2019C65.1676 59.4755 63.3686 59.6221 61.6811 59.523C61.4979 59.4777 61.2999 59.4807 61.1074 59.5438C60.9392 59.5989 60.7954 59.6929 60.6826 59.812C60.5199 59.9759 60.413 60.1948 60.3948 60.441C60.3792 60.6532 60.4323 60.8545 60.535 61.0247C61.9502 65.0866 64.2141 68.8485 67.1587 72.0463C67.1935 72.1009 67.2342 72.1531 67.2808 72.2018C67.5841 72.5193 67.8942 72.8308 68.2101 73.1356C68.5229 73.4448 68.8423 73.7479 69.1685 74.0447C69.2185 74.0902 69.2719 74.1299 69.3276 74.1636C72.602 77.0372 76.4539 79.2473 80.6123 80.6284C80.7856 80.7289 80.9903 80.7807 81.2064 80.7648C81.4589 80.7468 81.6829 80.6399 81.85 80.4781C81.8672 80.4623 81.8825 80.4449 81.8986 80.428C81.903 80.4231 81.9075 80.4182 81.9119 80.4132C82.0021 80.3137 82.0757 80.1971 82.121 80.0625C82.1846 79.8737 82.1872 79.68 82.1406 79.5006C82.0399 77.8574 82.189 76.1069 82.4676 75.7202C83.8268 74.7527 87.3593 74.5025 90.7185 75.1398C93.2429 75.6188 95.1833 76.518 95.7819 77.4863C96.4048 78.4941 96.5925 80.4471 96.2718 82.5828Z" fill="white" stroke="white" stroke-width="0.5"/>
<path d="M78.4029 43.2321C89.0705 43.2437 97.7152 51.7317 97.7272 62.2057C97.7272 62.8221 98.2361 63.3217 98.8639 63.3217C99.4917 63.3217 100.001 62.8221 100.001 62.2057C99.9874 50.4994 90.3256 41.0128 78.4029 41C77.7751 41 77.2662 41.4996 77.2662 42.116C77.2662 42.7325 77.7751 43.2321 78.4029 43.2321Z" fill="white" stroke="white" stroke-width="0.5"/>
<path d="M78.4033 49.9281C85.3057 49.9361 90.8991 55.4281 90.9073 62.2051C90.9073 62.8216 91.4162 63.3212 92.0439 63.3212C92.6717 63.3212 93.1806 62.8216 93.1806 62.2051C93.1711 54.1957 86.5606 47.7052 78.4033 47.696C77.7755 47.696 77.2666 48.1957 77.2666 48.8121C77.2666 49.4285 77.7755 49.9281 78.4033 49.9281Z" fill="white" stroke="white" stroke-width="0.5"/>
<path d="M78.4033 56.6249C81.5406 56.6286 84.0831 59.1248 84.0869 62.2054C84.0869 62.8218 84.5959 63.3214 85.2236 63.3214C85.8513 63.3214 86.3603 62.8218 86.3603 62.2054C86.3552 57.8927 82.7957 54.3977 78.4033 54.3928C77.7755 54.3928 77.2666 54.8924 77.2666 55.5089C77.2666 56.1253 77.7755 56.6249 78.4033 56.6249Z" fill="white" stroke="white" stroke-width="0.5"/>
<defs>
<filter id="filter0_d" x="0" y="0" width="151" height="151" filterUnits="userSpaceOnUse" color-interpolation-filters="sRGB">
<feFlood flood-opacity="0" result="BackgroundImageFix"/>
<feColorMatrix in="SourceAlpha" type="matrix" values="0 0 0 0 0 0 0 0 0 0 0 0 0 0 0 0 0 0 127 0" result="hardAlpha"/>
<feOffset dy="10"/>
<feGaussianBlur stdDeviation="15"/>
<feColorMatrix type="matrix" values="0 0 0 0 0.819608 0 0 0 0 0.227451 0 0 0 0 0.321569 0 0 0 0.4 0"/>
<feBlend mode="normal" in2="BackgroundImageFix" result="effect1_dropShadow"/>
<feBlend mode="normal" in="SourceGraphic" in2="effect1_dropShadow" result="shape"/>
</filter>
</defs>
</svg>
