<svg width="268" height="56" viewBox="0 0 268 56" fill="none" xmlns="http://www.w3.org/2000/svg">
    <path d="M79.9629 26.6908L84.4993 18.313V26.6908H87.5541V14.0693H84.0969L79.5604 22.447V14.0693H76.5057V26.6908H79.9629Z" fill="white"/>
    <path d="M100.855 26.6908V14.0693H97.8002V18.9715H93.1723V14.0693H90.1175V26.6908H93.1723V21.5507H97.8002V26.6908H100.855Z" fill="white"/>
    <path d="M113.048 16.6485V14.0693H102.493V16.6485H106.243V26.6908H109.298V16.6485H113.048Z" fill="white"/>
    <path d="M123.807 26.6908V24.1848H117.752V21.4593H122.252V19.0081H117.752V16.5753H123.734V14.0693H114.697V26.6908H123.807Z" fill="white"/>
    <path d="M136.123 18.3679C136.123 15.679 134.733 14.0693 131.752 14.0693H125.88V26.6908H128.935V22.5568H131.752C134.733 22.5568 136.123 21.0385 136.123 18.3679ZM132.977 18.6606C132.977 19.502 132.447 20.0142 131.404 20.0142H128.935V16.6119H131.404C132.465 16.6119 132.977 17.1423 132.977 18.0386V18.6606Z" fill="white"/>
    <path d="M148.639 26.6908V14.0693H145.585V18.9715H140.957V14.0693H137.902V26.6908H140.957V21.5507H145.585V26.6908H148.639Z" fill="white"/>
    <path d="M160.302 26.6908V24.1848H154.247V21.4593H158.747V19.0081H154.247V16.5753H160.229V14.0693H151.192V26.6908H160.302Z" fill="white"/>
    <path d="M172.015 16.6485V14.0693H161.46V16.6485H165.21V26.6908H168.265V16.6485H172.015Z" fill="white"/>
    <path d="M188.481 18.3679C188.481 15.679 187.091 14.0693 184.109 14.0693H178.237V26.6908H181.292V22.5568H184.109C187.091 22.5568 188.481 21.0385 188.481 18.3679ZM185.335 18.6606C185.335 19.502 184.804 20.0142 183.761 20.0142H181.292V16.6119H183.761C184.822 16.6119 185.335 17.1423 185.335 18.0386V18.6606Z" fill="white"/>
    <path d="M199.369 26.6908V24.1848H193.314V21.4593H197.814V19.0081H193.314V16.5753H199.296V14.0693H190.259V26.6908H199.369Z" fill="white"/>
    <path d="M214.411 14.0693V24.1116H210.99V14.0693H207.917V24.1116H204.497V14.0693H201.442V26.6908H217.466V14.0693H214.411Z" fill="white"/>
    <path d="M229.129 26.6908V24.1848H223.074V21.4593H227.574V19.0081H223.074V16.5753H229.056V14.0693H220.02V26.6908H229.129Z" fill="white"/>
    <path d="M241.939 26.6908V14.0693H238.885V18.9715H234.257V14.0693H231.202V26.6908H234.257V21.5507H238.885V26.6908H241.939Z" fill="white"/>
    <path d="M247.95 26.6908L252.486 18.313V26.6908H255.541V14.0693H252.084L247.547 22.447V14.0693H244.492V26.6908H247.95Z" fill="white"/>
    <path d="M257.83 18.2033C257.83 19.941 258.562 21.2032 259.952 21.8434L257.555 26.6908H260.775L262.933 22.319H264.927V26.6908H268V14.0693H262.421C259.494 14.0693 257.83 15.6607 257.83 18.2033ZM260.994 17.9106C260.994 16.996 261.598 16.5387 262.622 16.5387H264.927V19.8679H262.622C261.58 19.8679 260.994 19.3557 260.994 18.4228V17.9106Z" fill="white"/>
    <path d="M86.6438 38.8562L84.5493 45.167H85.3267L85.9212 43.3652H88.6559L89.2961 45.167H90.1192L87.8876 38.8562H86.6438ZM87.2474 39.3776L88.4181 42.6976H86.1407L87.2474 39.3776Z" fill="white"/>
    <path d="M91.0496 38.8562V45.167H91.8727V39.5147H94.6348V38.8562H91.0496Z" fill="white"/>
    <path d="M99.5645 45.167V44.5085H96.4457V42.2951H98.8786V41.6366H96.4457V39.5147H99.4913V38.8562H95.6226V45.167H99.5645Z" fill="white"/>
    <path d="M105.43 45.167V38.8562H104.607V41.6366H101.653V38.8562H100.83V45.167H101.653V42.2951H104.607V45.167H105.43Z" fill="white"/>
    <path d="M111.281 39.5147V38.8562H106.415V39.5147H108.437V45.167H109.26V39.5147H111.281Z" fill="white"/>
    <path d="M114.416 45.2584C115.842 45.2584 116.647 44.6914 116.858 43.3744H115.998C115.833 44.289 115.312 44.5999 114.416 44.5999C113.163 44.5999 112.641 43.7128 112.641 42.2951V41.7098C112.641 40.2647 113.199 39.4233 114.416 39.4233C115.367 39.4233 115.852 39.8257 115.989 40.6946H116.848C116.647 39.3593 115.943 38.7648 114.416 38.7648C112.632 38.7648 111.782 39.9355 111.782 42.0116C111.782 44.0878 112.632 45.2584 114.416 45.2584Z" fill="white"/>
    <path d="M122.356 39.5147V38.8562H117.491V39.5147H119.512V45.167H120.335V39.5147H122.356Z" fill="white"/>
    <path d="M127.801 43.411C127.801 42.5146 127.334 42.039 126.621 41.8744C127.243 41.6641 127.572 41.1427 127.572 40.4293C127.572 39.3684 126.923 38.8562 125.706 38.8562H123.346V45.167H125.852C127.151 45.167 127.801 44.5725 127.801 43.411ZM126.95 43.1732V43.5664C126.95 44.2067 126.538 44.5085 125.779 44.5085H124.17V42.2586H125.779C126.63 42.2586 126.95 42.6152 126.95 43.1732ZM126.712 40.3562V40.7037C126.712 41.3165 126.365 41.6366 125.715 41.6366H124.17V39.5147H125.715C126.355 39.5147 126.712 39.7983 126.712 40.3562Z" fill="white"/>
    <path d="M134.24 42.0116C134.24 39.8531 133.362 38.7648 131.487 38.7648C129.612 38.7648 128.743 39.8531 128.743 42.0116C128.743 44.1609 129.612 45.2584 131.487 45.2584C133.362 45.2584 134.24 44.1609 134.24 42.0116ZM133.38 42.2951C133.38 43.7676 132.804 44.5999 131.487 44.5999C130.17 44.5999 129.603 43.7676 129.603 42.2951V41.7098C129.603 40.2464 130.17 39.4233 131.487 39.4233C132.804 39.4233 133.38 40.2464 133.38 41.7098V42.2951Z" fill="white"/>
    <path d="M141.995 40.8135C141.995 39.6062 141.355 38.8562 139.947 38.8562H137.825V45.167H138.648V42.725H139.947C141.355 42.725 141.995 42.0025 141.995 40.8135ZM141.136 41.0055C141.136 41.6641 140.742 42.0299 139.892 42.0299H138.648V39.5513H139.892C140.742 39.5513 141.136 39.9172 141.136 40.6123V41.0055Z" fill="white"/>
    <path d="M147.108 45.167V44.5085H143.989V42.2951H146.422V41.6366H143.989V39.5147H147.035V38.8562H143.166V45.167H147.108Z" fill="white"/>
    <path d="M152.544 40.7769C152.544 39.5879 151.958 38.8562 150.495 38.8562H148.373V45.167H149.196V42.6518H150.486L151.848 45.167H152.8L151.364 42.5421C152.196 42.3043 152.544 41.6732 152.544 40.7769ZM151.684 40.9598C151.684 41.6 151.291 41.9567 150.44 41.9567H149.196V39.5513H150.44C151.291 39.5513 151.684 39.908 151.684 40.5665V40.9598Z" fill="white"/>
    <path d="M154.787 45.167V42.3774H157.193V41.7098H154.787V39.5147H157.741V38.8562H153.964V45.167H154.787Z" fill="white"/>
    <path d="M164.071 42.0116C164.071 39.8531 163.193 38.7648 161.318 38.7648C159.443 38.7648 158.575 39.8531 158.575 42.0116C158.575 44.1609 159.443 45.2584 161.318 45.2584C163.193 45.2584 164.071 44.1609 164.071 42.0116ZM163.212 42.2951C163.212 43.7676 162.635 44.5999 161.318 44.5999C160.001 44.5999 159.434 43.7676 159.434 42.2951V41.7098C159.434 40.2464 160.001 39.4233 161.318 39.4233C162.635 39.4233 163.212 40.2464 163.212 41.7098V42.2951Z" fill="white"/>
    <path d="M169.541 40.7769C169.541 39.5879 168.955 38.8562 167.492 38.8562H165.37V45.167H166.193V42.6518H167.483L168.845 45.167H169.797L168.361 42.5421C169.193 42.3043 169.541 41.6732 169.541 40.7769ZM168.681 40.9598C168.681 41.6 168.287 41.9567 167.437 41.9567H166.193V39.5513H167.437C168.287 39.5513 168.681 39.908 168.681 40.5665V40.9598Z" fill="white"/>
    <path d="M172.315 38.8562H170.961V45.167H171.739V39.533L173.495 44.1609H174.501L176.266 39.533V45.167H177.089V38.8562H175.79L174.043 43.4292L172.315 38.8562Z" fill="white"/>
    <path d="M180.114 38.8562L178.019 45.167H178.797L179.391 43.3652H182.126L182.766 45.167H183.589L181.357 38.8562H180.114ZM180.717 39.3776L181.888 42.6976H179.611L180.717 39.3776Z" fill="white"/>
    <path d="M185.599 38.8562H184.519V45.167H185.306V39.972L188.086 45.167H189.175V38.8562H188.388V44.0786L185.599 38.8562Z" fill="white"/>
    <path d="M193.104 45.2584C194.53 45.2584 195.335 44.6914 195.546 43.3744H194.686C194.521 44.289 194 44.5999 193.104 44.5999C191.851 44.5999 191.329 43.7128 191.329 42.2951V41.7098C191.329 40.2647 191.887 39.4233 193.104 39.4233C194.055 39.4233 194.54 39.8257 194.677 40.6946H195.536C195.335 39.3593 194.631 38.7648 193.104 38.7648C191.32 38.7648 190.47 39.9355 190.47 42.0116C190.47 44.0878 191.32 45.2584 193.104 45.2584Z" fill="white"/>
    <path d="M200.742 45.167V44.5085H197.624V42.2951H200.056V41.6366H197.624V39.5147H200.669V38.8562H196.8V45.167H200.742Z" fill="white"/>
    <path d="M205.648 38.8562H204.294V45.167H205.072V39.533L206.828 44.1609H207.834L209.599 39.533V45.167H210.422V38.8562H209.123L207.376 43.4292L205.648 38.8562Z" fill="white"/>
    <path d="M213.447 38.8562L211.352 45.167H212.13L212.724 43.3652H215.459L216.099 45.167H216.922L214.69 38.8562H213.447ZM214.05 39.3776L215.221 42.6976H212.944L214.05 39.3776Z" fill="white"/>
    <path d="M222.023 40.8135C222.023 39.6062 221.383 38.8562 219.974 38.8562H217.852V45.167H218.676V42.725H219.974C221.383 42.725 222.023 42.0025 222.023 40.8135ZM221.163 41.0055C221.163 41.6641 220.77 42.0299 219.919 42.0299H218.676V39.5513H219.919C220.77 39.5513 221.163 39.9172 221.163 40.6123V41.0055Z" fill="white"/>
    <path d="M224.017 38.8562H223.193V45.167H224.017V42.35H224.648L226.834 45.167H227.84L225.343 41.9567L227.638 38.8562H226.706L224.648 41.6549H224.017V38.8562Z" fill="white"/>
    <path d="M232.78 45.167V44.5085H229.661V42.2951H232.094V41.6366H229.661V39.5147H232.707V38.8562H228.838V45.167H232.78Z" fill="white"/>
    <path d="M238.289 39.5147V38.8562H233.424V39.5147H235.445V45.167H236.268V39.5147H238.289Z" fill="white"/>
    <path d="M240.231 45.167L243.148 39.908V45.167H243.971V38.8562H243.011L240.103 44.1152V38.8562H239.279V45.167H240.231Z" fill="white"/>
    <path d="M250.186 45.167V38.8562H249.362V41.6366H246.408V38.8562H245.585V45.167H246.408V42.2951H249.362V45.167H250.186Z" fill="white"/>
    <path d="M251.793 38.8562V45.167H252.616V39.5147H255.378V38.8562H251.793Z" fill="white"/>
    <path d="M256.988 38.8562L254.894 45.167H255.671L256.266 43.3652H259.001L259.641 45.167H260.464L258.232 38.8562H256.988ZM257.592 39.3776L258.763 42.6976H256.485L257.592 39.3776Z" fill="white"/>
    <path d="M35.1586 6.3567C35.0206 6.1109 34.2693 4.82044 32.644 4.35957C31.0493 3.89869 29.7614 4.55928 29.5007 4.69754C29.4547 4.72827 29.4087 4.74363 29.3627 4.77436C29.7 4.26739 30.1907 3.65289 30.8654 3.02303C30.8654 3.02303 31.8773 2.07055 33.104 1.3946C38.2099 -1.43211 44.5577 0.180957 47.7317 4.94334C47.7163 4.94334 47.7163 4.95871 47.701 4.95871C53.8189 15.9122 59.9367 26.8503 66.0546 37.8038C61.5467 37.7885 57.0388 37.7731 52.5309 37.7577C50.7369 34.5162 48.943 31.2747 47.149 28.0332C45.8764 25.7289 44.6037 23.4398 43.3311 21.1355L35.1586 6.3567Z" fill="white"/>
    <path d="M29.3936 4.74292L29.4549 4.71219C31.4789 3.59073 34.024 4.32884 35.1586 6.3567C36.1399 8.13875 37.1214 9.90473 38.1027 11.6868C35.0515 16.7257 31.9849 21.7492 28.9336 26.7882C26.833 22.9782 24.717 19.1683 22.6164 15.3738C24.8704 11.825 27.1396 8.29166 29.3936 4.74292Z" fill="white"/>
    <path d="M30.896 49.6172C31.034 49.863 31.7853 51.1535 33.4106 51.6144C35.0053 52.0752 36.2932 51.4147 36.5539 51.2764C36.5999 51.2457 36.6459 51.2303 36.6919 51.1996C36.3546 51.7066 35.8639 52.321 35.1893 52.9509C35.1893 52.9509 34.1773 53.9034 32.9506 54.5793C27.8447 57.4061 21.4969 55.793 18.3229 51.0306C18.3383 51.0306 18.3383 51.0152 18.3536 51.0152C12.2357 40.0617 6.11787 29.1236 0 18.1701C4.50791 18.1855 9.01581 18.2008 13.5237 18.2162C15.3177 21.4577 17.1116 24.6992 18.9056 27.9407C20.1782 30.2451 21.4509 32.5341 22.7235 34.8385L30.896 49.6172Z" fill="white"/>
    <path d="M36.6612 51.2308L36.5998 51.2616C34.5759 52.383 32.0307 51.6451 30.896 49.6172C29.9147 47.8352 28.9333 46.069 27.952 44.287C31.0033 39.2481 34.0699 34.2091 37.1212 29.1856C39.2218 32.9955 41.3377 36.8054 43.4384 40.6C41.1844 44.1487 38.9151 47.6821 36.6612 51.2308Z" fill="white"/>
</svg>
